<svg xmlns="http://www.w3.org/2000/svg" width="295" height="87" viewBox="0 0 295 87" fill="none"><path d="M10.5 27C8.5 21 2.66667 19 0 19H294.5C288.1 19 284.5 26.3333 283.5 30C278.833 43.3333 268.867 71.1466 267 76C264.5 82.5 265.5 82 262.5 84.5C259.5 87 256.5 86.5 252 86.5H40.5C37 86.5 35 86.5 32 84C29.6 82 28.5 77.3333 27.5 74.5C22.6667 61 12.5 33 10.5 27Z" fill="white"></path><g clip-path="url(#clip0_810_2870)"><path d="M106.11 0H130.444C133.556 0 135.255 0.282857 136.668 0.97013C138.851 2.10156 139.741 3.9226 139.741 7.35896C139.741 10.7953 138.528 12.6982 135.981 13.1821C139.619 13.8694 140.832 15.4473 140.832 19.3699C140.832 22.7665 139.862 24.9101 137.72 26.0416C136.467 26.6891 134.687 26.9719 131.575 26.9719H106.11V0ZM127.895 10.7579C129.472 10.7579 130.037 10.6761 130.563 10.4353C131.21 10.0706 131.615 9.34364 131.615 8.41325C131.615 7.32156 131.089 6.51273 130.201 6.18779C129.675 6.02649 129.271 5.98442 127.694 5.98442H114.112V10.7579H127.895ZM128.785 20.9899C130.442 20.9899 130.766 20.9501 131.292 20.7888C132.101 20.506 132.586 19.6971 132.586 18.5657C132.586 17.4343 132.101 16.5834 131.213 16.2608C130.729 16.0995 130.404 16.0597 128.586 16.0597H114.117V20.9945H128.79L128.785 20.9899Z" fill="#1A1A1A"></path><path d="M158.493 0H169.489L184.243 26.9743H175.269L172.601 22.161H155.22L152.633 26.9743H143.337L158.493 0ZM169.732 16.5413L163.911 5.78338L158.171 16.5413H169.732Z" fill="#1A1A1A"></path><path d="M187.192 0H200.206L210.028 17.9158L219.811 0H232.745V26.9743H224.743L225.147 6.14805L213.182 26.9743H206.633L194.872 6.14805L195.112 26.9743H187.192V0Z" fill="#1A1A1A"></path><path d="M106.11 31.224H130.444C133.556 31.224 135.255 31.5069 136.668 32.1941C138.851 33.3256 139.741 35.1466 139.741 38.583C139.741 42.0193 138.528 43.9222 135.981 44.4061C139.619 45.0934 140.832 46.6713 140.832 50.5939C140.832 53.9905 139.862 56.1341 137.72 57.2656C136.467 57.9131 134.687 58.196 131.575 58.196H106.11V31.2217V31.224ZM127.895 41.9819C129.472 41.9819 130.037 41.9001 130.563 41.6593C131.21 41.2947 131.615 40.5677 131.615 39.6373C131.615 38.5456 131.089 37.7367 130.201 37.4141C129.675 37.2528 129.271 37.2131 127.694 37.2131H114.112V41.9843H127.895V41.9819ZM128.785 52.2139C130.442 52.2139 130.766 52.1741 131.292 52.0128C132.101 51.73 132.586 50.9212 132.586 49.7897C132.586 48.6583 132.101 47.8074 131.213 47.4848C130.729 47.3235 130.404 47.2838 128.586 47.2838H114.117V52.2186H128.79L128.785 52.2139Z" fill="#1A1A1A"></path><path d="M146.489 31.2241H154.694V51.5267H173.248V58.1984H146.489V31.2241Z" fill="#1A1A1A"></path><path d="M185.533 31.2244V44.5701C185.533 47.5226 185.533 47.6044 185.654 48.3314C186.059 51.3657 187.393 51.9712 193.535 51.9712C199.678 51.9712 201.376 51.8099 202.388 51.0408C203.197 50.4353 203.601 49.2618 203.64 47.2C203.667 46.7948 203.68 45.5948 203.68 43.6V31.2244H211.886V45.3789C211.968 52.053 211.4 54.033 209.017 56.1766C207.077 57.6727 204.652 58.3202 201.133 58.36C199.881 58.3997 199.152 58.3997 197.535 58.3997L194.463 58.4395C186.865 58.3997 185.369 58.3179 183.388 57.7919C178.498 56.2958 177.204 53.7478 177.325 45.7389V31.2197H185.531L185.533 31.2244Z" fill="#1A1A1A"></path><path d="M247.741 31.2241V37.3301H225.954V41.982H246.489V47.3189H225.954V52.0924H248.024V58.1984H217.869V31.2241H247.741Z" fill="#1A1A1A"></path><path d="M90.3787 35.9702C93.2292 37.8403 93.5844 41.8844 91.1077 44.2244L82.2409 52.605L72.7035 61.6143L63.1638 70.6307C59.7409 73.866 54.1194 71.3367 54.2619 66.6286L54.8227 48.3715C54.846 47.5743 54.6895 46.7818 54.3647 46.0548L48.4605 32.8424C47.5446 30.7922 48.0236 28.3891 49.6544 26.8463L60.6544 16.4554L70.3227 7.31509L76.5119 1.46626C80.3063 -2.11971 86.4442 1.38912 85.283 6.48055L80.9138 25.6424C80.4231 27.793 81.3203 30.0231 83.1638 31.2341L90.3811 35.9725L90.3787 35.9702Z" fill="#0000FF"></path><path d="M106.11 0H130.444C133.556 0 135.255 0.282857 136.668 0.97013C138.851 2.10156 139.741 3.9226 139.741 7.35896C139.741 10.7953 138.528 12.6982 135.981 13.1821C139.619 13.8694 140.832 15.4473 140.832 19.3699C140.832 22.7665 139.862 24.9101 137.72 26.0416C136.467 26.6891 134.687 26.9719 131.575 26.9719H106.11V0ZM127.895 10.7579C129.472 10.7579 130.037 10.6761 130.563 10.4353C131.21 10.0706 131.615 9.34364 131.615 8.41325C131.615 7.32156 131.089 6.51273 130.201 6.18779C129.675 6.02649 129.271 5.98442 127.694 5.98442H114.112V10.7579H127.895ZM128.785 20.9899C130.442 20.9899 130.766 20.9501 131.292 20.7888C132.101 20.506 132.586 19.6971 132.586 18.5657C132.586 17.4343 132.101 16.5834 131.213 16.2608C130.729 16.0995 130.404 16.0597 128.586 16.0597H114.117V20.9945H128.79L128.785 20.9899Z" fill="#1A1A1A"></path><path d="M158.493 0H169.489L184.243 26.9743H175.269L172.601 22.161H155.22L152.633 26.9743H143.337L158.493 0ZM169.732 16.5413L163.911 5.78338L158.171 16.5413H169.732Z" fill="#1A1A1A"></path><path d="M187.192 0H200.206L210.028 17.9158L219.811 0H232.745V26.9743H224.743L225.147 6.14805L213.182 26.9743H206.633L194.872 6.14805L195.112 26.9743H187.192V0Z" fill="#1A1A1A"></path><path d="M106.11 31.224H130.444C133.556 31.224 135.255 31.5069 136.668 32.1941C138.851 33.3256 139.741 35.1466 139.741 38.583C139.741 42.0193 138.528 43.9222 135.981 44.4061C139.619 45.0934 140.832 46.6713 140.832 50.5939C140.832 53.9905 139.862 56.1341 137.72 57.2656C136.467 57.9131 134.687 58.196 131.575 58.196H106.11V31.2217V31.224ZM127.895 41.9819C129.472 41.9819 130.037 41.9001 130.563 41.6593C131.21 41.2947 131.615 40.5677 131.615 39.6373C131.615 38.5456 131.089 37.7367 130.201 37.4141C129.675 37.2528 129.271 37.2131 127.694 37.2131H114.112V41.9843H127.895V41.9819ZM128.785 52.2139C130.442 52.2139 130.766 52.1741 131.292 52.0128C132.101 51.73 132.586 50.9212 132.586 49.7897C132.586 48.6583 132.101 47.8074 131.213 47.4848C130.729 47.3235 130.404 47.2838 128.586 47.2838H114.117V52.2186H128.79L128.785 52.2139Z" fill="#1A1A1A"></path><path d="M146.489 31.2241H154.694V51.5267H173.248V58.1984H146.489V31.2241Z" fill="#1A1A1A"></path><path d="M185.533 31.2244V44.5701C185.533 47.5226 185.533 47.6044 185.654 48.3314C186.059 51.3657 187.393 51.9712 193.535 51.9712C199.678 51.9712 201.376 51.8099 202.388 51.0408C203.197 50.4353 203.601 49.2618 203.64 47.2C203.667 46.7948 203.68 45.5948 203.68 43.6V31.2244H211.886V45.3789C211.968 52.053 211.4 54.033 209.017 56.1766C207.077 57.6727 204.652 58.3202 201.133 58.36C199.881 58.3997 199.152 58.3997 197.535 58.3997L194.463 58.4395C186.865 58.3997 185.369 58.3179 183.388 57.7919C178.498 56.2958 177.204 53.7478 177.325 45.7389V31.2197H185.531L185.533 31.2244Z" fill="#1A1A1A"></path><path d="M247.741 31.2241V37.3301H225.954V41.982H246.489V47.3189H225.954V52.0924H248.024V58.1984H217.869V31.2241H247.741Z" fill="#1A1A1A"></path></g><defs><clipPath id="clip0_810_2870"><rect width="200" height="72" fill="white" transform="translate(48)"></rect></clipPath></defs></svg>