<svg xmlns="http://www.w3.org/2000/svg" width="302" height="80" viewBox="0 0 302 80" fill="none"><path d="M5.17171 21.2768C2.6757 14.7309 7.50993 7.71387 14.5155 7.71387H287.485C294.49 7.71387 299.324 14.731 296.828 21.2768L277 73.2768C275.522 77.1528 271.805 79.7139 267.656 79.7139H34.3438C30.1955 79.7139 26.478 77.1528 25 73.2768L5.17171 21.2768Z" fill="#F5F5F5"></path><g clip-path="url(#clip0_1165_2820)"><path d="M116.176 0H140.51C143.622 0 145.321 0.282857 146.734 0.97013C148.916 2.10156 149.807 3.9226 149.807 7.35896C149.807 10.7953 148.594 12.6982 146.047 13.1821C149.685 13.8694 150.898 15.4473 150.898 19.3699C150.898 22.7665 149.928 24.9101 147.786 26.0416C146.533 26.6891 144.753 26.9719 141.641 26.9719H116.176V0ZM137.961 10.7579C139.538 10.7579 140.103 10.6761 140.629 10.4353C141.276 10.0706 141.68 9.34364 141.68 8.41325C141.68 7.32156 141.155 6.51273 140.267 6.18779C139.741 6.02649 139.337 5.98442 137.76 5.98442H124.178V10.7579H137.961ZM138.851 20.9899C140.508 20.9899 140.832 20.9501 141.358 20.7888C142.166 20.506 142.652 19.6971 142.652 18.5657C142.652 17.4343 142.166 16.5834 141.279 16.2608C140.795 16.0995 140.47 16.0597 138.652 16.0597H124.183V20.9945H138.856L138.851 20.9899Z" fill="#1A1A1A"></path><path d="M168.559 0H179.554L194.309 26.9743H185.335L182.667 22.161H165.286L162.699 26.9743H153.403L168.559 0ZM179.797 16.5413L173.977 5.78338L168.237 16.5413H179.797Z" fill="#1A1A1A"></path><path d="M197.258 0H210.272L220.094 17.9158L229.877 0H242.811V26.9743H234.809L235.213 6.14805L223.248 26.9743H216.699L204.937 6.14805L205.178 26.9743H197.258V0Z" fill="#1A1A1A"></path><path d="M116.176 31.224H140.51C143.622 31.224 145.321 31.5069 146.734 32.1941C148.916 33.3256 149.807 35.1466 149.807 38.583C149.807 42.0193 148.594 43.9222 146.047 44.4061C149.685 45.0934 150.898 46.6713 150.898 50.5939C150.898 53.9905 149.928 56.1341 147.786 57.2656C146.533 57.9131 144.753 58.196 141.641 58.196H116.176V31.2217V31.224ZM137.961 41.9819C139.538 41.9819 140.103 41.9001 140.629 41.6593C141.276 41.2947 141.68 40.5677 141.68 39.6373C141.68 38.5456 141.155 37.7367 140.267 37.4141C139.741 37.2528 139.337 37.2131 137.76 37.2131H124.178V41.9843H137.961V41.9819ZM138.851 52.2139C140.508 52.2139 140.832 52.1741 141.358 52.0128C142.166 51.73 142.652 50.9212 142.652 49.7897C142.652 48.6583 142.166 47.8074 141.279 47.4848C140.795 47.3235 140.47 47.2838 138.652 47.2838H124.183V52.2186H138.856L138.851 52.2139Z" fill="#1A1A1A"></path><path d="M156.555 31.2246H164.76V51.5272H183.314V58.1989H156.555V31.2246Z" fill="#1A1A1A"></path><path d="M195.598 31.2244V44.5701C195.598 47.5226 195.598 47.6044 195.72 48.3314C196.124 51.3657 197.458 51.9712 203.601 51.9712C209.743 51.9712 211.442 51.8099 212.454 51.0408C213.262 50.4353 213.666 49.2618 213.706 47.2C213.732 46.7948 213.746 45.5948 213.746 43.6V31.2244H221.951V45.3789C222.033 52.053 221.465 54.033 219.082 56.1766C217.143 57.6727 214.718 58.3202 211.199 58.36C209.947 58.3997 209.218 58.3997 207.601 58.3997L204.528 58.4395C196.93 58.3997 195.435 58.3179 193.454 57.7919C188.563 56.2958 187.269 53.7478 187.39 45.7389V31.2197H195.596L195.598 31.2244Z" fill="#1A1A1A"></path><path d="M257.807 31.2246V37.3306H236.02V41.9825H256.555V47.3194H236.02V52.0929H258.09V58.1989H227.936V31.2246H257.807Z" fill="#1A1A1A"></path><path d="M100.445 35.9697C103.295 37.8398 103.65 41.884 101.174 44.224L92.3068 52.6045L82.7694 61.6138L73.2297 70.6302C69.8068 73.8655 64.1853 71.3362 64.3278 66.6281L64.8886 48.371C64.912 47.5738 64.7554 46.7814 64.4306 46.0543L58.5264 32.8419C57.6105 30.7917 58.0895 28.3886 59.7204 26.8458L70.7204 16.4549L80.3886 7.31461L86.5778 1.46578C90.3722 -2.1202 96.5101 1.38863 95.3489 6.48006L90.9797 25.6419C90.4891 27.7925 91.3863 30.0227 93.2297 31.2336L100.447 35.972L100.445 35.9697Z" fill="#0000FF"></path><path d="M116.176 0H140.51C143.622 0 145.321 0.282857 146.734 0.97013C148.916 2.10156 149.807 3.9226 149.807 7.35896C149.807 10.7953 148.594 12.6982 146.047 13.1821C149.685 13.8694 150.898 15.4473 150.898 19.3699C150.898 22.7665 149.928 24.9101 147.786 26.0416C146.533 26.6891 144.753 26.9719 141.641 26.9719H116.176V0ZM137.961 10.7579C139.538 10.7579 140.103 10.6761 140.629 10.4353C141.276 10.0706 141.68 9.34364 141.68 8.41325C141.68 7.32156 141.155 6.51273 140.267 6.18779C139.741 6.02649 139.337 5.98442 137.76 5.98442H124.178V10.7579H137.961ZM138.851 20.9899C140.508 20.9899 140.832 20.9501 141.358 20.7888C142.166 20.506 142.652 19.6971 142.652 18.5657C142.652 17.4343 142.166 16.5834 141.279 16.2608C140.795 16.0995 140.47 16.0597 138.652 16.0597H124.183V20.9945H138.856L138.851 20.9899Z" fill="#1A1A1A"></path><path d="M168.559 0H179.554L194.309 26.9743H185.335L182.667 22.161H165.286L162.699 26.9743H153.403L168.559 0ZM179.797 16.5413L173.977 5.78338L168.237 16.5413H179.797Z" fill="#1A1A1A"></path><path d="M197.258 0H210.272L220.094 17.9158L229.877 0H242.811V26.9743H234.809L235.213 6.14805L223.248 26.9743H216.699L204.937 6.14805L205.178 26.9743H197.258V0Z" fill="#1A1A1A"></path><path d="M116.176 31.224H140.51C143.622 31.224 145.321 31.5069 146.734 32.1941C148.916 33.3256 149.807 35.1466 149.807 38.583C149.807 42.0193 148.594 43.9222 146.047 44.4061C149.685 45.0934 150.898 46.6713 150.898 50.5939C150.898 53.9905 149.928 56.1341 147.786 57.2656C146.533 57.9131 144.753 58.196 141.641 58.196H116.176V31.2217V31.224ZM137.961 41.9819C139.538 41.9819 140.103 41.9001 140.629 41.6593C141.276 41.2947 141.68 40.5677 141.68 39.6373C141.68 38.5456 141.155 37.7367 140.267 37.4141C139.741 37.2528 139.337 37.2131 137.76 37.2131H124.178V41.9843H137.961V41.9819ZM138.851 52.2139C140.508 52.2139 140.832 52.1741 141.358 52.0128C142.166 51.73 142.652 50.9212 142.652 49.7897C142.652 48.6583 142.166 47.8074 141.279 47.4848C140.795 47.3235 140.47 47.2838 138.652 47.2838H124.183V52.2186H138.856L138.851 52.2139Z" fill="#1A1A1A"></path><path d="M156.555 31.2246H164.76V51.5272H183.314V58.1989H156.555V31.2246Z" fill="#1A1A1A"></path><path d="M195.598 31.2244V44.5701C195.598 47.5226 195.598 47.6044 195.72 48.3314C196.124 51.3657 197.458 51.9712 203.601 51.9712C209.743 51.9712 211.442 51.8099 212.454 51.0408C213.262 50.4353 213.666 49.2618 213.706 47.2C213.732 46.7948 213.746 45.5948 213.746 43.6V31.2244H221.951V45.3789C222.033 52.053 221.465 54.033 219.082 56.1766C217.143 57.6727 214.718 58.3202 211.199 58.36C209.947 58.3997 209.218 58.3997 207.601 58.3997L204.528 58.4395C196.93 58.3997 195.435 58.3179 193.454 57.7919C188.563 56.2958 187.269 53.7478 187.39 45.7389V31.2197H195.596L195.598 31.2244Z" fill="#1A1A1A"></path><path d="M257.807 31.2246V37.3306H236.02V41.9825H256.555V47.3194H236.02V52.0929H258.09V58.1989H227.936V31.2246H257.807Z" fill="#1A1A1A"></path></g><defs><clipPath id="clip0_1165_2820"><rect width="200" height="72" fill="white" transform="translate(58.0664)"></rect></clipPath></defs></svg>