<svg xmlns="http://www.w3.org/2000/svg" width="146" height="153" viewBox="0 0 146 153" fill="none"><g clip-path="url(#clip0_538_3843)"><path d="M6.67 141.606C8.43803 141.606 10.0529 140.903 11.2465 139.764L9.36992 137.883C8.66781 138.536 7.70401 138.939 6.67 138.939C4.46155 138.939 2.67437 137.16 2.67437 134.947C2.67437 132.733 4.46155 130.955 6.67 130.955C7.70401 130.955 8.66781 131.358 9.36992 132.029L11.2465 130.129C10.0529 128.984 8.43803 128.281 6.67 128.281C3.00628 128.281 0.0255127 131.268 0.0255127 134.94C0.0255127 138.612 3.00628 141.6 6.67 141.6V141.606Z" fill="#7F7F7F"></path><path d="M35.4118 134.94C35.4118 131.268 32.431 128.281 28.7673 128.281C25.1036 128.281 22.1228 131.268 22.1228 134.94C22.1228 138.612 25.1036 141.6 28.7673 141.6C32.431 141.6 35.4118 138.612 35.4118 134.94ZM28.7673 138.951C26.5588 138.951 24.7717 137.16 24.7717 134.947C24.7717 132.733 26.5588 130.955 28.7673 130.955C30.9757 130.955 32.7502 132.746 32.7502 134.947C32.7502 137.147 30.963 138.951 28.7673 138.951Z" fill="#7F7F7F"></path><path d="M60.6428 141.606V128.281H57.7897L53.909 138.017L50.0155 128.281H47.1624V141.606H49.8048V134.94L52.4728 141.606H55.3323L58.0003 134.94V141.606H60.6428Z" fill="#7F7F7F"></path><path d="M75.0424 136.277H76.1275C78.3168 136.277 80.0912 134.486 80.0912 132.285C80.0912 130.085 78.3232 128.281 76.1084 128.281H72.3872V141.606H75.0361V136.284L75.0424 136.277ZM75.0424 130.955H76.1148C76.8488 130.955 77.4488 131.55 77.4488 132.292C77.4488 133.034 76.8552 133.61 76.1148 133.61H75.0424V130.955Z" fill="#7F7F7F"></path><path d="M97.7141 128.281H94.8929L90.0867 141.606H92.9079L94.261 137.883H98.346L99.6992 141.606H102.52L97.7141 128.281ZM95.2248 135.209L96.2971 132.202L97.3822 135.209H95.2248Z" fill="#7F7F7F"></path><path d="M124.988 141.606V128.281H122.339V137.173L117.022 128.281H113.92V141.606H116.569V132.727L121.899 141.606H124.988Z" fill="#7F7F7F"></path><path d="M139.349 128.281H136.381L139.853 135.26V141.606H142.502V135.26L145.974 128.281H143.013L141.187 131.972L139.349 128.281Z" fill="#7F7F7F"></path><path d="M1.54464 152.955H2.39993V148.074H3.93818V147.313H0V148.074H1.54464V152.955Z" fill="#7F7F7F"></path><path d="M10.1614 147.313L8.11255 152.955H9.01891L9.45294 151.695H11.5912L12.0252 152.955H12.9252L10.8763 147.313H10.1614ZM9.70186 150.934L10.5189 148.464H10.5316L11.3486 150.934H9.70186Z" fill="#7F7F7F"></path><path d="M19.0782 148.528C19.1675 148.413 19.2888 148.317 19.4356 148.24C19.5824 148.164 19.7548 148.125 19.9526 148.119C20.2271 148.119 20.4569 148.202 20.6484 148.355C20.8335 148.515 20.9547 148.707 21.0249 148.938H21.9313C21.8419 148.464 21.6249 148.068 21.2803 147.748C20.9356 147.428 20.4952 147.268 19.9526 147.261C19.5122 147.261 19.142 147.37 18.842 147.581C18.542 147.786 18.325 148.016 18.1846 148.279C18.1016 148.413 18.0378 148.592 17.9931 148.816C17.9548 149.04 17.9357 149.475 17.9357 150.134C17.9357 150.793 17.9548 151.215 17.9931 151.445C18.0123 151.567 18.0378 151.669 18.0697 151.746C18.1016 151.823 18.1399 151.906 18.1846 151.989C18.3186 152.251 18.542 152.482 18.842 152.68C19.1356 152.885 19.5058 152.994 19.9526 153.006C20.5271 152.994 21.0058 152.802 21.3824 152.424C21.759 152.04 21.9504 151.567 21.9632 151.004V149.852H19.9654V150.665H21.1143V150.959C21.1143 151.311 20.9994 151.599 20.7824 151.816C20.5654 152.04 20.2909 152.155 19.959 152.155C19.7548 152.155 19.5824 152.111 19.442 152.028C19.2952 151.957 19.1739 151.861 19.0846 151.746C18.9761 151.624 18.8995 151.465 18.8676 151.273C18.8293 151.074 18.8037 150.703 18.8037 150.147C18.8037 149.59 18.8229 149.213 18.8676 149.014C18.9059 148.822 18.9761 148.669 19.0846 148.547L19.0782 148.528Z" fill="#7F7F7F"></path><path d="M27.7013 147.313V152.955H31.3012V152.149H28.5566V147.313H27.7013Z" fill="#7F7F7F"></path><path d="M37.7095 147.313H36.8542V152.955H37.7095V147.313Z" fill="#7F7F7F"></path><path d="M47.0093 151.324H46.9901L44.4434 147.313H43.6392V152.955H44.4945V148.944H44.5072L47.054 152.955H47.8582V147.313H47.0093V151.324Z" fill="#7F7F7F"></path><path d="M57.3941 148.119V147.313H53.7942V152.955H57.3941V152.149H54.6495V150.492H56.992V149.731H54.6495V148.119H57.3941Z" fill="#7F7F7F"></path><path d="M70.3002 147.581C70.0002 147.786 69.7768 148.016 69.6427 148.279C69.5598 148.413 69.4959 148.592 69.4512 148.816C69.4129 149.04 69.3938 149.475 69.3938 150.134C69.3938 150.793 69.4129 151.215 69.4512 151.445C69.4704 151.567 69.4959 151.669 69.5278 151.746C69.5598 151.823 69.598 151.906 69.6427 151.989C69.7768 152.252 70.0002 152.482 70.3002 152.68C70.5938 152.885 70.964 152.994 71.4108 153.006C71.9852 152.994 72.4639 152.802 72.8405 152.424C73.2171 152.04 73.4086 151.567 73.4213 151.004V149.853H71.4235V150.665H72.5724V150.959C72.5724 151.311 72.4575 151.599 72.2405 151.817C72.0235 152.04 71.749 152.156 71.4171 152.156C71.2129 152.156 71.0406 152.111 70.9001 152.028C70.7533 151.957 70.6321 151.861 70.5427 151.746C70.4342 151.625 70.3576 151.465 70.3257 151.273C70.2874 151.074 70.2619 150.703 70.2619 150.147C70.2619 149.59 70.281 149.213 70.3257 149.014C70.364 148.823 70.4342 148.669 70.5427 148.547C70.6321 148.432 70.7533 148.336 70.9001 148.26C71.0469 148.183 71.2193 148.144 71.4171 148.138C71.6916 148.138 71.9214 148.221 72.1129 148.375C72.298 148.535 72.4192 148.727 72.4895 148.957H73.3958C73.3064 148.483 73.0894 148.087 72.7448 147.767C72.4001 147.447 71.9597 147.287 71.4171 147.281C70.9767 147.281 70.6065 147.39 70.3065 147.601L70.3002 147.581Z" fill="#7F7F7F"></path><path d="M82.74 151.989C82.8358 151.855 82.8996 151.669 82.9379 151.445C82.9698 151.221 82.989 150.78 82.989 150.134C82.989 149.488 82.9698 149.04 82.9379 148.816C82.8996 148.592 82.8358 148.413 82.74 148.279C82.606 148.016 82.3954 147.786 82.1018 147.581C81.8018 147.377 81.4316 147.268 80.9784 147.261C80.538 147.261 80.1678 147.37 79.8678 147.581C79.5678 147.786 79.3508 148.016 79.2104 148.279C79.1274 148.413 79.0636 148.592 79.0189 148.816C78.9806 149.04 78.9614 149.475 78.9614 150.134C78.9614 150.793 78.9806 151.215 79.0189 151.445C79.038 151.567 79.0635 151.669 79.0955 151.746C79.1274 151.823 79.1657 151.906 79.2104 151.989C79.3444 152.251 79.5678 152.482 79.8678 152.68C80.1614 152.885 80.5316 152.994 80.9784 153.006C81.4252 152.994 81.8018 152.885 82.1018 152.68C82.3954 152.482 82.6124 152.251 82.74 151.989ZM81.8464 151.74C81.7635 151.855 81.6486 151.951 81.5082 152.021C81.3614 152.104 81.1826 152.149 80.9784 152.149C80.7741 152.149 80.6018 152.104 80.4614 152.021C80.3146 151.951 80.1933 151.855 80.1039 151.74C79.9954 151.618 79.9188 151.458 79.8869 151.266C79.8486 151.068 79.8231 150.697 79.8231 150.14C79.8231 149.584 79.8423 149.206 79.8869 149.008C79.9252 148.816 79.9954 148.663 80.1039 148.541C80.1933 148.426 80.3146 148.33 80.4614 148.253C80.6082 148.176 80.7805 148.138 80.9784 148.132C81.1826 148.132 81.3614 148.176 81.5082 148.253C81.6486 148.33 81.7635 148.426 81.8464 148.541C81.955 148.663 82.0315 148.816 82.0762 149.008C82.1145 149.206 82.1337 149.59 82.1337 150.14C82.1337 150.69 82.1145 151.068 82.0762 151.266C82.0379 151.465 81.9613 151.624 81.8464 151.74Z" fill="#7F7F7F"></path><path d="M92.3271 148.119V147.313H88.7336V152.955H92.3271V152.149H89.5889V150.492H91.925V149.731H89.5889V148.119H92.3271Z" fill="#7F7F7F"></path><path d="M99.5461 152.149C98.927 152.149 98.3972 151.957 97.944 151.586L97.3823 152.226C97.9823 152.744 98.6972 153 99.5333 153C100.823 152.987 101.48 152.437 101.512 151.356C101.512 150.953 101.384 150.607 101.135 150.3C100.88 149.993 100.491 149.801 99.9673 149.731C99.6993 149.699 99.4886 149.667 99.3355 149.641C99.0546 149.59 98.8567 149.494 98.7291 149.36C98.6014 149.226 98.5376 149.078 98.5376 148.918C98.5376 148.65 98.6397 148.445 98.8185 148.304C98.9908 148.17 99.2142 148.106 99.4759 148.106C99.9801 148.119 100.446 148.26 100.867 148.541L101.34 147.837C100.823 147.466 100.21 147.268 99.5142 147.255C98.9333 147.255 98.4802 147.415 98.1674 147.709C97.8419 148.01 97.6759 148.407 97.6759 148.899C97.6759 149.309 97.8036 149.661 98.0653 149.942C98.3206 150.224 98.6844 150.403 99.1695 150.479C99.4376 150.518 99.6865 150.556 99.9163 150.582C100.408 150.665 100.657 150.921 100.65 151.343C100.638 151.855 100.267 152.117 99.5397 152.13L99.5461 152.149Z" fill="#7F7F7F"></path><path d="M117.743 152.955V147.313H116.894V149.731H114.66V147.313H113.812V152.955H114.66V150.492H116.894V152.955H117.743Z" fill="#7F7F7F"></path><path d="M127.279 148.119V147.313H123.686V152.955H127.279V152.149H124.535V150.492H126.877V149.731H124.535V148.119H127.279Z" fill="#7F7F7F"></path><path d="M133.681 150.543H134.773L135.934 152.955H136.949L135.641 150.448C136.356 150.172 136.719 149.648 136.732 148.88C136.719 148.362 136.528 147.959 136.171 147.677C135.877 147.428 135.494 147.306 135.022 147.306H132.826V152.949H133.681V150.537V150.543ZM133.681 148.074H135.015C135.29 148.074 135.494 148.132 135.641 148.247C135.826 148.381 135.915 148.592 135.922 148.887C135.922 149.13 135.845 149.341 135.685 149.507C135.526 149.686 135.283 149.782 134.964 149.789H133.675V148.074H133.681Z" fill="#7F7F7F"></path><path d="M146 148.119V147.313H142.4V152.955H146V152.149H143.255V150.492H145.598V149.731H143.255V148.119H146Z" fill="#7F7F7F"></path><path d="M107.678 12.315C107.588 12.2382 107.493 12.1614 107.403 12.0911C107.493 12.1678 107.588 12.2382 107.684 12.315H107.678Z" fill="#7F7F7F"></path><path d="M106.439 11.3427H106.446V11.3555C106.759 11.5922 107.071 11.8353 107.365 12.0784C107.065 11.8353 106.759 11.5986 106.446 11.3555H106.439L106.433 11.3427H106.439Z" fill="#7F7F7F"></path><path d="M105.986 10.9903C105.986 10.9903 105.973 10.9842 105.973 10.978H105.979H105.967C105.967 10.978 105.973 10.9903 105.979 10.9903H105.986Z" fill="#7F7F7F"></path><path d="M105.948 10.9652L105.935 10.9524L105.757 10.8245L105.935 10.9524L105.948 10.9652Z" fill="#7F7F7F"></path><path d="M104.04 9.59617H104.033C103.931 9.5194 103.829 9.44903 103.72 9.37866C103.823 9.44903 103.931 9.5194 104.033 9.58978H104.04V9.59617Z" fill="#7F7F7F"></path><path d="M82.0634 0.748508C81.8401 0.710124 81.623 0.671739 81.3996 0.639752C81.623 0.671739 81.8464 0.710124 82.0634 0.748508Z" fill="#7F7F7F"></path><path d="M103.171 9.01307C103.171 9.01307 103.152 9.00078 103.146 8.99463C103.152 8.99463 103.164 9.00692 103.171 9.01307Z" fill="#7F7F7F"></path><path d="M96.3356 5.18198C95.7739 4.91969 95.2633 4.68939 94.7718 4.47827C95.2696 4.68939 95.7803 4.91969 96.3356 5.18198Z" fill="#7F7F7F"></path><path d="M102.68 8.69395C102.795 8.76432 102.903 8.84109 103.018 8.91146C102.91 8.84109 102.795 8.76432 102.686 8.69395H102.68Z" fill="#7F7F7F"></path><path d="M89.6974 2.58451C89.5633 2.53973 89.4293 2.50134 89.2952 2.45656C89.4293 2.49495 89.5633 2.53973 89.6974 2.58451Z" fill="#7F7F7F"></path><path d="M87.6165 1.96412C87.5526 1.94493 87.4952 1.93213 87.4314 1.91294C87.4888 1.93213 87.5526 1.94493 87.6165 1.96412Z" fill="#7F7F7F"></path><path d="M94.3059 4.28623L94.3569 4.30542C94.4782 4.3566 94.5995 4.40778 94.7144 4.45896C94.5931 4.40778 94.4782 4.3566 94.3569 4.30542L94.3059 4.28623L94.274 4.27344L94.3123 4.28623H94.3059Z" fill="#7F7F7F"></path><path d="M101.289 7.83043L101.569 7.99676C101.748 8.09912 101.92 8.20788 102.093 8.32303L102.118 8.33582L102.099 8.32303C101.927 8.21427 101.748 8.10552 101.576 7.99676L101.295 7.83043H101.289Z" fill="#7F7F7F"></path><path d="M108.105 12.6668C107.978 12.558 107.856 12.4621 107.735 12.3597L107.716 12.3469L107.735 12.3661C107.856 12.4621 107.984 12.5644 108.105 12.6732V12.6668Z" fill="#7F7F7F"></path><path d="M100.503 7.3697C100.631 7.44007 100.759 7.51684 100.88 7.58721C100.752 7.51044 100.631 7.44007 100.503 7.3697L100.408 7.31212C100.363 7.28653 100.318 7.26094 100.274 7.23535C100.318 7.26094 100.357 7.28653 100.401 7.31212L100.497 7.3697H100.503Z" fill="#7F7F7F"></path><path d="M96.4248 5.22671L96.8971 5.45062C97.0758 5.53379 97.2546 5.61695 97.4333 5.71291H97.4524V5.72571H97.4461L97.4269 5.71291C97.2546 5.62335 97.0758 5.54018 96.8971 5.45062L96.4248 5.22671C96.4248 5.22671 96.3993 5.21392 96.3801 5.20752C96.3929 5.21392 96.4057 5.22031 96.4184 5.22671H96.4248Z" fill="#7F7F7F"></path><path d="M92.3462 3.50568C92.7483 3.65282 93.1824 3.82555 93.7122 4.04306C93.7505 4.05585 93.7824 4.06865 93.8207 4.08784C93.7824 4.07505 93.7505 4.05585 93.7122 4.04306C93.1824 3.82555 92.7483 3.65922 92.3462 3.50568Z" fill="#7F7F7F"></path><path d="M18.4272 47.6541V47.6796L18.4208 47.6988L18.4272 47.6796V47.6541Z" fill="#7F7F7F"></path><path d="M18.4973 47.1871C18.5101 47.0912 18.5228 46.9952 18.542 46.8992C18.5292 46.9952 18.5165 47.0912 18.5037 47.1871H18.4973Z" fill="#7F7F7F"></path><path d="M18.4846 47.264C18.4782 47.3215 18.4719 47.3791 18.4591 47.4303L18.4399 47.5774L18.4655 47.4303C18.4719 47.3727 18.4782 47.3151 18.491 47.2576L18.4846 47.264Z" fill="#7F7F7F"></path><path d="M18.2611 49.0552C18.2675 48.9912 18.2739 48.9272 18.2803 48.8696C18.2739 48.9336 18.2675 48.9912 18.2611 49.0552Z" fill="#7F7F7F"></path><path d="M17.9995 52.1516C17.9995 52.2604 17.9867 52.3691 17.9803 52.4779C17.9803 52.3691 17.9931 52.2604 17.9995 52.1516Z" fill="#7F7F7F"></path><path d="M18.1207 50.4626C18.1207 50.5266 18.108 50.5906 18.1016 50.6482C18.1016 50.6802 18.1016 50.7121 18.0952 50.7441C18.0952 50.7121 18.0952 50.6802 18.1016 50.6482C18.1016 50.5842 18.1144 50.5202 18.1144 50.4626H18.1207Z" fill="#7F7F7F"></path><path d="M18.0633 51.1535C18.0633 51.1535 18.0633 51.0959 18.0633 51.0703C18.0633 51.0959 18.0633 51.1279 18.0569 51.1535H18.0633Z" fill="#7F7F7F"></path><path d="M69.1321 0.134427C69.2534 0.128029 69.3746 0.121632 69.5023 0.115234C69.381 0.121632 69.2597 0.128029 69.1321 0.134427Z" fill="#7F7F7F"></path><path d="M46.6901 73.7683C46.7156 73.8195 46.7411 73.8707 46.7603 73.9219C46.7347 73.8707 46.7092 73.8195 46.6901 73.7683Z" fill="#7F7F7F"></path><path d="M84.5273 1.22192C84.8784 1.29869 85.2295 1.37546 85.5741 1.45863C85.2231 1.37546 84.8784 1.29869 84.5273 1.22192Z" fill="#7F7F7F"></path><path d="M97.5164 5.75757C98.3142 6.15421 99.1121 6.57643 99.8971 7.01785C99.1184 6.57643 98.3206 6.1606 97.5164 5.75757Z" fill="#7F7F7F"></path><path d="M108.884 13.3258C108.776 13.2362 108.673 13.1467 108.565 13.0507L108.348 12.8716L108.559 13.0507C108.667 13.1403 108.776 13.2298 108.878 13.3258H108.884Z" fill="#7F7F7F"></path><path d="M54.9751 24.0861C59.6664 19.0129 65.4365 15.0786 71.9278 12.558C73.8937 11.7967 75.9043 11.1697 77.9468 10.6899C75.9043 11.1697 73.8937 11.7903 71.9278 12.558C65.4365 15.0786 59.6664 19.0193 54.9751 24.0861Z" fill="#7F7F7F"></path><path d="M64.7789 94.3423C59.3472 91.054 54.6494 86.6462 50.9538 81.3428C49.6134 79.4236 48.4326 77.4148 47.4177 75.342C48.439 77.4148 49.6134 79.4236 50.9538 81.3492C54.643 86.6526 59.3408 91.054 64.7789 94.3487V94.3423Z" fill="#7F7F7F"></path><path d="M29.7437 83.5308C22.2759 76.1546 18.0824 66.3026 17.9292 55.8045V55.6574V55.4846C17.9292 55.4335 17.9292 55.3759 17.9292 55.3247C17.9292 55.3759 17.9292 55.4271 17.9292 55.4846C17.9292 55.5422 17.9292 55.5998 17.9292 55.6638V55.8109C18.0888 66.309 22.2823 76.1546 29.7501 83.5372C37.2244 90.9262 47.1177 94.9949 57.6174 94.9949C59.2897 94.9949 60.9428 94.8862 62.5768 94.6815C60.9428 94.8862 59.2833 94.9949 57.6174 94.9949C47.1177 94.9949 37.2244 90.9262 29.7501 83.5372L29.7437 83.5308Z" fill="#7F7F7F"></path><path d="M110.116 14.4198L110.135 14.439C110.231 14.5286 110.327 14.6181 110.429 14.7077C110.333 14.6181 110.237 14.5286 110.135 14.439L110.116 14.4198L109.988 14.3046C109.988 14.3046 109.944 14.2663 109.925 14.2471C109.944 14.2663 109.969 14.2855 109.988 14.3046L110.116 14.4198Z" fill="#7F7F7F"></path><path d="M111.041 15.2897L111.022 15.2706L111.016 15.2642L111.022 15.2706L111.041 15.2897Z" fill="#7F7F7F"></path><path d="M111.584 15.8143C111.584 15.8143 111.59 15.8207 111.597 15.8271L111.584 15.8143C111.52 15.7503 111.45 15.6863 111.386 15.6224C111.297 15.5392 111.214 15.456 111.125 15.3665C111.214 15.4496 111.303 15.5328 111.386 15.616C111.45 15.6799 111.52 15.7439 111.584 15.8079V15.8143Z" fill="#7F7F7F"></path><path d="M110.761 15.021C110.678 14.9379 110.595 14.8611 110.505 14.7779L110.492 14.7651V14.7779C110.595 14.8611 110.671 14.9379 110.754 15.0146L110.761 15.021Z" fill="#7F7F7F"></path><path d="M17.9292 54.0707V53.9939C17.9292 53.9555 17.9292 53.9236 17.9292 53.8916C17.9292 53.6741 17.9356 53.4629 17.9484 53.239C17.9484 53.1879 17.9484 53.1367 17.9484 53.0791C17.9484 53.1303 17.9484 53.1815 17.9484 53.2326C17.942 53.4565 17.9356 53.6741 17.9292 53.8852C17.9292 53.9172 17.9292 53.9555 17.9292 53.9875V54.0067V54.0451V54.0643C17.9292 54.2434 17.9229 54.4162 17.9229 54.5953C17.9229 54.4162 17.9229 54.2434 17.9292 54.0643V54.0707Z" fill="#7F7F7F"></path><path d="M18.5547 46.784V46.8352L18.5356 46.9056C18.5228 47.0015 18.5036 47.0975 18.4909 47.1934V47.2062C18.4909 47.2062 18.4909 47.2446 18.4845 47.2638C18.4781 47.3214 18.4717 47.379 18.459 47.4365L18.4334 47.5837V47.6093L18.4207 47.6541V47.6796V47.6988V47.7116V47.7564L18.4143 47.7884V47.8204C18.3888 47.9995 18.3696 48.185 18.3441 48.3706C18.3249 48.5305 18.3058 48.6968 18.2866 48.8632C18.2803 48.9271 18.2739 48.9911 18.2675 49.0487V49.0615C18.242 49.2662 18.2228 49.4645 18.2037 49.6628C18.1909 49.81 18.1781 49.9635 18.1654 50.1171V50.1298L18.1526 50.277C18.1526 50.3346 18.1398 50.3921 18.1398 50.4561C18.1398 50.5201 18.1271 50.5841 18.1271 50.6416C18.1271 50.6736 18.1271 50.7056 18.1207 50.7376C18.1207 50.7888 18.1143 50.8336 18.1079 50.8847C18.1079 50.9423 18.1015 51.0063 18.0952 51.0639C18.0952 51.0895 18.0952 51.1214 18.0952 51.147C18.076 51.3517 18.0632 51.5629 18.0505 51.8124C18.0505 51.9275 18.0377 52.0299 18.0377 52.1322C18.0377 52.241 18.0249 52.3497 18.0186 52.4585V52.4713V52.4841V52.4969C18.0186 52.4969 18.0186 52.5289 18.0186 52.5417C18.0186 52.5672 18.0186 52.5928 18.0186 52.6184V52.6504V52.6888C18.0122 52.8104 18.0058 52.9383 17.9994 53.0599C17.9994 53.111 17.9994 53.1622 17.9994 53.2198C17.993 53.4437 17.9866 53.6548 17.9803 53.8723C17.9803 53.9043 17.9803 53.9427 17.9803 53.9747V54.0514C17.9803 54.2306 17.9739 54.4033 17.9739 54.5824V54.6848V54.7296V54.9151C17.9739 54.9663 17.9739 55.0238 17.9739 55.075C17.9739 55.1134 17.9739 55.1518 17.9739 55.1902C17.9739 55.2286 17.9739 55.2669 17.9739 55.3053C17.9739 55.3565 17.9739 55.4077 17.9739 55.4653V55.7915C18.1334 66.2897 22.3269 76.1416 29.7948 83.5178C37.2691 90.9068 47.1624 94.9756 57.6621 94.9756C59.328 94.9756 60.9875 94.8668 62.6215 94.6621C63.3619 94.5725 64.1023 94.4638 64.8363 94.3294C59.4046 91.0348 54.7069 86.6334 51.0112 81.3299C49.6708 79.4107 48.49 77.4019 47.4751 75.3228C47.2454 74.8558 47.0283 74.3824 46.8113 73.9089C46.7858 73.8578 46.7603 73.8066 46.7411 73.7554C44.1625 67.953 42.8285 61.6643 42.8285 55.1966C42.8285 45.786 45.656 36.7529 51.0112 29.0632C52.2431 27.2976 53.5835 25.6342 55.0324 24.0733C59.7237 19.0001 65.4938 15.0594 71.9851 12.5452C73.951 11.7839 75.9616 11.1569 78.004 10.6771C81.4061 9.87747 84.9038 9.47443 88.4463 9.47443C96.7375 9.47443 104.703 11.6815 111.654 15.8142C111.654 15.8142 111.648 15.8078 111.641 15.8015C111.578 15.7375 111.514 15.6735 111.444 15.6095C111.361 15.5264 111.271 15.4432 111.182 15.36C111.156 15.3344 111.131 15.3089 111.099 15.2833L111.08 15.2641H111.073L111.061 15.2385C110.984 15.1681 110.901 15.0913 110.818 15.0146C110.735 14.9314 110.652 14.8546 110.563 14.7779V14.7651L110.544 14.7523L110.524 14.7331C110.524 14.7331 110.492 14.7075 110.48 14.6947C110.384 14.6051 110.288 14.5156 110.186 14.426L110.167 14.4068L110.039 14.2917C110.039 14.2917 109.995 14.2533 109.975 14.2341C109.835 14.1061 109.695 13.9782 109.554 13.8566C109.395 13.7159 109.241 13.5816 109.088 13.4472C109.037 13.4024 108.986 13.364 108.935 13.3193C108.827 13.2297 108.724 13.1401 108.616 13.0442L108.405 12.865L108.29 12.7691L108.207 12.6923L108.163 12.6539C108.035 12.5452 107.914 12.4428 107.793 12.3469L107.773 12.3277H107.767L107.754 12.3085L107.741 12.2957C107.652 12.2189 107.556 12.1421 107.461 12.0718L107.454 12.0654C107.161 11.8223 106.848 11.5792 106.535 11.3425L106.529 11.3297C106.446 11.2657 106.363 11.2017 106.28 11.1378L106.178 11.061L106.114 11.0162C106.114 11.0162 106.088 10.997 106.069 10.9842C106.069 10.9842 106.063 10.9778 106.056 10.9714L106.044 10.9586H106.037L106.025 10.9458L105.852 10.8179L105.788 10.7731L105.552 10.6004C105.552 10.6004 105.501 10.562 105.476 10.5492C105.431 10.5172 105.386 10.4852 105.342 10.4532L105.246 10.3829H105.239C105.144 10.3125 105.054 10.2485 104.959 10.1781C104.939 10.1653 104.914 10.1462 104.895 10.127L104.869 10.1078L104.844 10.0886C104.614 9.92865 104.384 9.76871 104.154 9.60878H104.148C104.046 9.53201 103.944 9.46164 103.835 9.39127C103.81 9.37207 103.784 9.35928 103.759 9.34009L103.752 9.33369C103.599 9.23133 103.446 9.12897 103.286 9.02661C103.28 9.02661 103.267 9.01382 103.261 9.00742L103.248 9.00102H103.235C103.203 8.96904 103.171 8.94985 103.133 8.93065C103.018 8.86028 102.91 8.78351 102.795 8.71314L102.776 8.70035L102.757 8.68755C102.591 8.5788 102.425 8.47644 102.252 8.36768L102.233 8.35489L102.208 8.3357C102.035 8.22694 101.863 8.11819 101.684 8.00943L101.403 7.8431C101.359 7.81111 101.32 7.78552 101.276 7.76633C101.225 7.73434 101.167 7.70235 101.116 7.67037H101.103H101.097C101.065 7.65118 101.033 7.63198 101.001 7.61279C100.874 7.53602 100.752 7.46565 100.625 7.39528L100.529 7.3377C100.484 7.31211 100.44 7.28652 100.401 7.26093C100.286 7.19056 100.165 7.12659 100.05 7.06261C100.037 7.06261 100.025 7.04982 100.018 7.04342C99.2396 6.6084 98.4417 6.18617 97.6375 5.78314C97.6184 5.77674 97.5992 5.76395 97.5865 5.75755H97.5801H97.5609C97.3886 5.65519 97.2099 5.57202 97.0248 5.48886L96.5524 5.26495C96.5524 5.26495 96.5269 5.24576 96.5142 5.23936C96.5078 5.23936 96.495 5.23296 96.4886 5.22656H96.4758V5.22017H96.4695C95.9142 4.95148 95.3972 4.72757 94.9057 4.51645H94.8929L94.8801 4.50366H94.8674L94.8546 4.49726C94.7333 4.44608 94.6185 4.3949 94.4972 4.34372L94.4461 4.32453L94.4078 4.31174H94.4014L94.1908 4.22217C94.1142 4.19019 94.0376 4.1582 93.961 4.12621C93.9227 4.11342 93.8908 4.09423 93.8525 4.08143C93.3227 3.87032 92.8887 3.69759 92.4866 3.54405L92.2441 3.45449L92.2121 3.44169L91.9632 3.34573C91.293 3.10263 90.5909 2.85953 89.8888 2.63562H89.8824H89.876C89.8633 2.63562 89.8505 2.62922 89.8441 2.62283C89.7101 2.57804 89.576 2.53966 89.442 2.49488C89.3016 2.4501 89.1675 2.41171 89.0271 2.36693C88.9442 2.34134 88.8612 2.31575 88.7846 2.29016C88.4782 2.2006 88.191 2.11743 87.9101 2.04066H87.8974H87.891H87.8782C87.8399 2.02787 87.8016 2.02147 87.7633 2.00868C87.6995 1.98948 87.6421 1.97669 87.5782 1.9575L87.5399 1.9447L87.4889 1.93191C86.908 1.77837 86.3208 1.63763 85.7272 1.49689C85.3762 1.41372 85.0315 1.33695 84.6804 1.26018C84.0868 1.13223 83.4996 1.01068 82.906 0.901928C82.6826 0.863544 82.4656 0.825159 82.2422 0.786775H82.2295H82.2231C82.0061 0.748391 81.7827 0.710006 81.5593 0.678019C81.4571 0.665225 81.355 0.646032 81.2529 0.633238C81.1252 0.614046 80.9912 0.594853 80.8699 0.575661C80.238 0.486098 79.5997 0.409329 78.9615 0.345355C77.7296 0.217407 76.4849 0.127844 75.2403 0.0830621C74.551 0.0574725 73.8552 0.0446777 73.1659 0.0446777C71.9978 0.0446777 70.8298 0.0894595 69.6681 0.159831C69.5468 0.166228 69.4256 0.172626 69.2979 0.179023C68.0086 0.268586 66.7257 0.402932 65.4555 0.582059C65.2257 0.614046 65.0023 0.65243 64.7725 0.684417C64.7725 0.684417 64.7597 0.684417 64.7534 0.684417C64.7534 0.684417 64.7534 0.684417 64.747 0.684417L18.5547 46.7712V46.784Z" fill="#7F7F7F"></path><path d="M127.452 63.5644V63.5261L127.464 63.4813C127.477 63.4045 127.49 63.3213 127.496 63.2446V63.2254V63.1934V63.1614C127.515 63.059 127.535 62.9567 127.547 62.8543V62.784L127.567 62.7136C127.567 62.6816 127.573 62.6496 127.579 62.6176L127.624 62.2722L127.656 62.0355C127.688 61.8052 127.707 61.594 127.732 61.3765V61.3445C127.758 61.1398 127.777 60.9479 127.796 60.7496C127.809 60.5833 127.828 60.4297 127.841 60.2826L127.854 60.1226C127.867 60.0139 127.873 59.9051 127.879 59.7964V59.758V59.7196C127.892 59.5789 127.905 59.4381 127.911 59.3038V59.2462C127.93 59.0415 127.95 58.8304 127.956 58.5873V58.5745C127.969 58.357 127.981 58.1458 127.994 57.9411V57.8772V57.794V57.7108C128.007 57.5381 128.013 57.359 128.02 57.1798C128.026 56.9367 128.032 56.7128 128.039 56.4825V56.4505V56.3482C128.039 56.1819 128.039 56.0155 128.039 55.8492V55.6317C128.039 55.4909 128.039 55.3438 128.039 55.2094C128.039 55.0623 128.039 54.9088 128.039 54.7616V54.6081C127.879 44.11 123.686 34.2644 116.224 26.8818C108.75 19.4928 98.8503 15.4241 88.357 15.4241C85.9316 15.4241 83.5316 15.6416 81.1828 16.0702C86.6145 19.3649 91.3187 23.7727 95.0079 29.0761C100.363 36.7658 103.191 45.7989 103.191 55.2094C103.191 64.62 100.363 73.6531 95.0079 81.3428C89.7804 88.8533 82.5295 94.5662 74.034 97.8609C68.7938 99.8952 63.2535 100.932 57.5728 100.932C49.2816 100.932 41.3222 98.7245 34.365 94.5918L34.3778 94.6046L34.4097 94.6366L34.4416 94.6685C34.4735 94.7069 34.5054 94.7389 34.5437 94.7645L34.6522 94.8733C34.7416 94.9628 34.8309 95.046 34.9203 95.1356L34.9331 95.1484L34.9522 95.1612C35.099 95.3019 35.2777 95.4746 35.4501 95.6282L35.4756 95.6474L35.5011 95.6729C35.616 95.7817 35.7245 95.8841 35.8394 95.9928H35.8458L35.8586 96.012C36.0564 96.1975 36.2607 96.3767 36.4649 96.5558H36.4777L36.4905 96.575C36.6245 96.6965 36.7585 96.8117 36.8926 96.9332L36.9181 96.9524L37.0075 97.0292H37.0139L37.4032 97.3682L37.4798 97.4386L37.4989 97.4578C37.6074 97.5474 37.7096 97.6369 37.8181 97.7201L37.8628 97.7521L37.9011 97.7905C37.9904 97.8736 38.0989 97.9568 38.2138 98.0464L38.2521 98.0784L38.2904 98.1104C38.3734 98.1807 38.4564 98.2511 38.5393 98.3087L38.5649 98.3279L38.5904 98.3471C38.884 98.5838 39.1904 98.8205 39.4968 99.0572C39.5606 99.1083 39.6308 99.1595 39.6946 99.2107C39.7712 99.2683 39.8478 99.3259 39.9244 99.3834C39.9691 99.4154 40.0074 99.4474 40.0521 99.4794L40.1287 99.5306C40.2499 99.6201 40.3776 99.7161 40.4989 99.8057L40.6137 99.8888C40.6776 99.9336 40.7414 99.9784 40.7988 100.023L40.8244 100.042L40.8499 100.062C40.9393 100.132 41.035 100.196 41.1244 100.26L41.2265 100.33C41.4499 100.49 41.6797 100.65 41.9158 100.81L41.935 100.823L41.9541 100.836C42.0563 100.906 42.1584 100.976 42.2605 101.04L42.3371 101.092L42.5924 101.258L42.8605 101.437C42.9945 101.527 43.1413 101.623 43.2817 101.712C43.4286 101.808 43.569 101.898 43.7094 101.987H44.0605L44.686 102.582C44.7817 102.64 44.8774 102.704 44.9796 102.755C45.1711 102.87 45.3625 102.979 45.554 103.088L45.5732 103.1L45.5923 103.113C45.7455 103.203 45.8923 103.286 46.0519 103.369C46.8625 103.83 47.6859 104.265 48.5093 104.674C48.6944 104.764 48.8731 104.853 49.0518 104.943C49.0773 104.956 49.1029 104.968 49.1348 104.988C49.3071 105.064 49.4731 105.147 49.6454 105.231C50.1624 105.474 50.6922 105.71 51.2156 105.934H51.2283L51.2411 105.941C51.3687 105.998 51.5028 106.056 51.6304 106.107C51.6687 106.12 51.7134 106.139 51.7581 106.158C51.9304 106.229 52.1028 106.299 52.2751 106.369C52.6964 106.542 53.1559 106.721 53.641 106.9H53.6538L53.6666 106.913C53.8134 106.971 53.9602 107.028 54.1133 107.079H54.1325L54.1516 107.092C54.8538 107.348 55.5495 107.591 56.2197 107.802H56.2452L56.2644 107.815C56.3984 107.86 56.5324 107.905 56.6729 107.943H56.692L56.7111 107.95C56.9154 108.014 57.1196 108.077 57.3239 108.141L57.4962 108.193C57.7452 108.263 57.9877 108.333 58.2303 108.404C58.3643 108.442 58.4856 108.474 58.6068 108.506H58.6388C60.1579 108.922 61.7025 109.267 63.2216 109.536H63.2407L63.2599 109.542C63.445 109.574 63.6429 109.613 63.8918 109.651H63.9173C64.1662 109.696 64.3705 109.728 64.5556 109.754H64.5875L64.6194 109.76C64.8301 109.798 65.0471 109.824 65.2641 109.856H65.2832C67.8236 110.214 70.4086 110.393 72.9873 110.393C75.5659 110.393 78.1573 110.214 80.6977 109.856H80.7487C80.953 109.818 81.1572 109.792 81.3551 109.76H81.387L81.4062 109.754L127.432 63.622C127.432 63.622 127.432 63.5708 127.445 63.5388L127.452 63.5644Z" fill="#7F7F7F"></path></g><defs><clipPath id="clip0_538_3843"><rect width="146" height="153" fill="white"></rect></clipPath></defs></svg>